<svg width="414" height="896" xmlns="http://www.w3.org/2000/svg">
 <g>
  <title>Layer 1</title>
  <path id="svg_72" d="m1037.34363,671.67574l0.56913,0l0.17587,-0.54067l0.17587,0.54067l0.56913,0l-0.46044,0.33415l0.17588,0.54067l-0.46044,-0.33416l-0.46044,0.33416l0.17588,-0.54067l-0.46044,-0.33415z" stroke-width="32" stroke="#0f0f0f" fill="#ffffff"/>
  <path id="svg_73" d="m-584.29017,-225.93883l0.56913,0l0.17587,-0.54067l0.17587,0.54067l0.56913,0l-0.46044,0.33415l0.17588,0.54067l-0.46044,-0.33416l-0.46044,0.33416l0.17588,-0.54067l-0.46044,-0.33415z" stroke-width="32" stroke="#0f0f0f" fill="#ffffff"/>
  <polyline stroke="#0f0f0f" fill="#ffffff" stroke-width="28" points="211.66710567474365,344.0170021057129 211.66710567474365,344.0170021057129 " id="svg_24" stroke-linecap="round"/>
  <path stroke="#0f0f0f" fill="#ffffff" stroke-width="28" id="svg_25" d="m211.04464,351.57705c0,-0.58154 0,-0.58154 0,-1.16309c0,0 0,0 0,0c0,-0.58154 0,-0.58154 0,-0.58154c0,0 0,-0.58154 0,-0.58154c0,-0.58154 0,-0.58154 0,-1.16309c0,0 0,0 0,-0.58154c0,-0.58156 0,-1.1631 0,-1.1631c0,-0.58154 0,-0.58154 0,-1.16309c0,0 0,-0.58154 0,-0.58154c0,-0.58154 0,-0.58154 0,-0.58154c0.62247,0 0.62247,-0.58154 0.62247,-0.58154c0,0 0,-0.58154 0,-0.58154c0,0 0,-0.58154 0,-1.16309c0,0 0,-0.58154 0,-0.58154c0,-0.58154 0,-0.58154 0,-1.16309c0,0 0,0 0.62245,0.58154c0.62245,0.58154 1.24491,1.16309 1.86737,1.74462c0,0 0,0 0.62245,0.58154l0,0"/>
  <path stroke="#0f0f0f" fill="#ffffff" id="svg_10" d="m221.49301,258.62695c-0.35409,0.1713 -0.86973,-0.07209 -1.96563,-0.33835c-1.9373,-0.47067 -4.23668,-0.78955 -6.44616,-2.03858c-1.54317,-0.87236 -3.1921,-2.01996 -5.3839,-2.55246c-1.9373,-0.47066 -3.57755,-0.78247 -5.3597,-0.84517c-2.32364,-0.08174 -4.43465,-0.16301 -6.42196,-0.33128c-1.77751,-0.15051 -3.9665,-0.0122 -5.16451,0.34966c-0.37884,0.11443 -0.70817,0.34259 -2.12452,1.02777c-1.77043,0.85648 -3.99204,1.71797 -6.37355,3.08332c-2.40569,1.37921 -5.48228,3.08191 -8.48596,4.96474c-3.00368,1.88284 -6.19045,3.4245 -8.31497,4.45227c-0.35409,0.1713 -1.1438,0.3761 -2.83269,1.37036c-2.05462,1.20957 -4.61503,3.05068 -8.11977,5.6471c-3.19682,2.3683 -5.89546,4.71038 -8.27866,7.01322c-2.03066,1.96218 -3.87074,3.59155 -5.98315,5.47297c0,0 -0.65925,0.5798 -1.92932,2.2226c-1.37521,1.7788 -2.97103,4.68947 -4.87249,8.37369c-2.49844,4.84092 -4.49483,9.34702 -5.52014,12.98453c-0.80893,2.86983 -0.93001,3.96232 -1.18484,4.44096c-0.40293,0.7568 -1.64673,2.26993 -2.78428,4.78497c-1.33855,2.95944 -1.9946,6.45326 -3.06575,10.07816c-1.15021,3.89243 -1.50262,7.17321 -2.52857,10.24804c-0.85496,2.56237 -0.67187,2.90354 -0.47667,4.09837c0.1952,1.19483 0.4025,3.2433 0.79289,5.63296c0.39039,2.38965 0.96174,4.74006 1.34217,6.65649c0.40178,2.02398 0.33663,2.37541 0.2194,2.90213c-0.29887,1.34287 0.03664,3.06606 0.07261,5.1219c0.03896,2.22602 0.4146,4.09695 0.80499,6.48661c0.39039,2.38965 1.08345,4.23155 1.69626,6.48519c0.73343,2.69725 1.09176,4.29008 0.79289,5.63296c-0.11723,0.52672 -0.17099,0.51247 0.1952,1.19483c0.36619,0.68235 1.80674,1.70447 2.8932,2.89789c1.08646,1.19341 2.57411,2.63087 3.44248,3.92142c1.10697,1.64514 2.02002,2.48379 2.53911,3.06918c0.58037,0.65448 1.25745,0.68094 1.44055,1.02212c0.36619,0.68235 0.87807,1.73481 2.18503,3.24048c2.11363,2.43499 4.80315,4.5058 7.41004,7.15907c2.26598,2.30629 4.28722,3.96027 5.42021,5.11342c0.86897,0.88442 1.97773,1.192 2.16082,1.53318c0.36619,0.68235 1.32791,1.43895 3.78447,2.89647c3.50734,2.08097 6.69191,4.02673 9.88865,5.96c2.73192,1.65216 5.05815,2.59145 6.99545,3.06211c1.64386,0.39938 2.54049,0.9706 2.869,1.19058c1.18445,0.79315 4.29744,1.35906 8.0577,2.54823c3.76026,1.18917 7.35889,2.85168 10.38952,3.56893c2.26261,0.53549 3.88216,1.09479 5.00561,1.01646c0.3972,-0.02769 1.22395,-0.34297 3.73605,-0.51813c4.44082,-0.30963 9.25889,-0.01482 13.90617,0.14867c3.5643,0.12539 6.69891,0.39875 9.62083,-0.35673c0.38367,-0.0992 1.29804,-0.943 3.54086,-1.71295c3.08247,-1.05819 8.03196,-1.57676 14.04086,-2.92475c5.54194,-1.24325 9.23044,-2.74638 12.41722,-4.28804c1.41635,-0.68518 2.12452,-1.02777 4.24903,-2.05555c3.54086,-1.71295 7.69547,-3.94987 13.62626,-7.02171c6.28933,-3.25754 10.77813,-7.14438 15.54348,-10.09795c0.33283,-0.20628 1.03144,-0.78312 2.44229,-3.76002c3.48686,-7.35729 6.88808,-17.08431 9.28196,-24.25892c2.22289,-6.66214 4.25017,-10.51901 4.65309,-11.27582c0.25483,-0.47864 0.86379,-1.99823 1.70992,-5.12473c1.27703,-4.71861 1.46481,-10.07257 1.3937,-14.85605c-0.06859,-4.61286 -0.29202,-8.02402 -0.29202,-8.02402c-0.0121,-0.85365 0.25079,-3.08789 -0.46301,-7.51155c-0.82947,-5.14054 -2.52162,-10.77856 -3.9781,-16.55487c-0.86499,-3.43045 -1.70836,-7.33884 -1.70836,-7.33884c-0.36619,-0.68235 -1.40672,-2.33148 -2.56332,-4.77648c-1.66053,-3.51028 -3.3199,-7.84849 -5.33394,-11.60144c-2.56332,-4.77648 -2.56332,-4.77648 -3.1126,-5.80001c-1.28166,-2.38824 -2.97811,-6.30984 -5.49283,-10.23531c-2.75634,-4.30262 -5.1258,-6.96095 -7.08016,-9.03766c-1.10687,-1.17615 -1.17256,-1.09742 -1.80674,-1.70447c-1.72518,-1.65136 -3.79657,-3.75012 -6.32358,-5.96565c-2.52701,-2.21553 -4.48837,-3.92126 -5.95739,-5.2833c-0.64421,-0.59729 -1.10454,-0.77791 -1.62364,-1.3633c-1.74111,-1.96345 -5.91866,-3.86688 -10.43793,-6.98353c-3.93066,-2.71072 -6.78266,-4.79915 -8.82639,-6.47388c-1.92683,-1.57896 -1.76362,-1.56087 -2.16082,-1.53318c-0.56173,0.03917 -1.62112,-0.37288 -2.50281,-0.50823c-1.11527,-0.17119 -1.92471,-0.50692 -3.03999,-0.67811c-0.88169,-0.13535 -1.94517,-0.42264 -2.50281,-0.50823c-0.88169,-0.13535 -1.78253,0.00283 -2.31971,-0.16705c-0.53718,-0.16988 -1.24535,0.17271 -1.78253,0.00283c-0.53718,-0.16988 -1.08394,-0.203 -1.96563,-0.33835c-0.55763,-0.0856 -1.07436,-0.33976 -1.61154,-0.50965c-0.53718,-0.16988 -1.25745,-0.68094 -1.79463,-0.85082c-0.53718,-0.16988 -1.07436,-0.33976 -1.61154,-0.50965c-0.53718,-0.16988 -1.07436,-0.33976 -1.61154,-0.50965c-0.53718,-0.16988 -1.2208,-0.03634 -1.78253,0.00283c-0.3972,0.0277 -1.24535,0.17271 -2.13662,0.17413c-0.89127,0.00141 -1.42844,-0.16847 -2.31971,-0.16705c-0.89127,0.00141 -1.78253,0.00283 -2.6738,0.00424c-0.89127,0.00141 -1.80916,-0.19326 -2.6738,0.00424c-0.77336,0.17666 -1.60901,0.48076 -2.4907,0.34542c-0.55763,-0.0856 -1.36326,-0.00253 -2.13662,0.17413c-0.86464,0.1975 -1.78253,0.00283 -2.6738,0.00424c-0.89127,0.00141 -1.77183,0.08796 -3.02788,0.17554c-0.88817,0.06193 -2.13662,0.17413 -3.02788,0.17554c-0.89127,0.00141 -1.74994,0.0858 -2.13662,0.17413c-0.86464,0.1975 -1.20223,0.31631 -1.59944,0.344c-0.56172,0.03916 -0.84815,0.14502 -1.24535,0.17271c-0.56172,0.03916 -0.89127,0.00141 -1.59944,0.344c-0.35409,0.1713 -1.06226,0.51389 -1.77043,0.85648c-1.06226,0.51389 -1.41635,0.68518 -2.12452,1.02777c-0.70817,0.34259 -1.06226,0.51389 -1.41635,0.68518c-0.35409,0.1713 -0.70817,0.34259 -1.41635,0.68518c-0.35409,0.1713 -1.06226,0.51389 -1.77043,0.85648c-0.35409,0.1713 -1.06226,0.51389 -1.41635,0.68518c-0.35409,0.1713 -1.06226,0.51389 -1.41635,0.68518c-0.35409,0.1713 -0.35409,0.1713 -0.70817,0.34259c0,0 -0.35409,0.1713 -0.35409,0.1713c-0.35409,0.1713 -0.70817,0.34259 -0.70817,0.34259c-0.70817,0.34259 -1.06226,0.51389 -1.41635,0.68518c-0.35409,0.1713 -0.70817,0.34259 -1.06226,0.51389c-0.35409,0.1713 -1.06226,0.51389 -1.41635,0.68518c-0.35409,0.1713 -0.87916,0.85506 -1.23325,1.02636c-0.35409,0.1713 -0.55674,0.4783 -1.23325,1.02636c-0.30254,0.2451 -0.97618,0.73754 -1.23325,1.02636c-0.36354,0.40845 -0.6221,0.56624 -0.87916,0.85506c-0.36354,0.40845 -0.87916,0.85506 -1.05016,1.36754l-0.34198,1.02494" stroke-width="15"/>
  <path stroke="#0f0f0f" fill="#BBBBBB" id="svg_11" d="m209.08048,344.14097c-0.3815,0.10633 0.03677,0.0814 0.3815,-0.10633c0.77085,-0.41977 1.77372,-1.44574 2.85555,-2.79028c1.0263,-1.27555 1.9495,-2.66148 2.8903,-3.99659c0.79953,-1.13463 1.72294,-2.16356 2.62438,-3.5236c1.06237,-1.60282 2.57146,-2.86471 3.65329,-4.20926c1.0263,-1.27555 1.80847,-2.65204 2.8903,-3.99659c1.0263,-1.27555 1.9495,-2.66148 2.8903,-3.99659c0.79953,-1.13463 2.06894,-2.18824 3.00588,-3.62993c0.75538,-1.16232 1.32956,-2.36495 2.24288,-3.41726c0.91332,-1.05231 1.17719,-2.46057 1.86139,-3.31093c0.54091,-0.67228 0.85538,-1.36501 1.44515,-1.9983c0.26376,-0.28321 0.3438,-0.61153 0.53183,-0.94598c0.18803,-0.33445 0.64741,-0.57932 0.91332,-1.05231c0.26591,-0.47299 0.60509,-0.81376 0.91332,-1.05231c0.43589,-0.33736 0.61488,-0.91039 0.79773,-1.41897c0.28912,-0.80414 0.64536,-1.51459 1.32956,-2.36495c0.54091,-0.67228 1.10304,-1.57311 1.44515,-1.9983c0.54091,-0.67228 0.90424,-1.32602 1.44515,-1.9983c0.3421,-0.42519 0.63832,-0.85303 1.17923,-1.5253c0.3421,-0.42519 0.63832,-0.85303 1.17923,-1.5253c0.3421,-0.42519 0.79773,-1.41897 1.32956,-2.36495c0.26591,-0.47299 0.90424,-1.32602 1.44515,-1.9983c0.6842,-0.85036 0.64536,-1.51459 1.32956,-2.36495c0.54091,-0.67228 0.76095,-1.14793 1.44515,-1.9983c0.54091,-0.67228 1.29482,-1.15865 1.56073,-1.63163c0.26591,-0.47299 0.49262,-0.56654 0.53183,-0.94598c0.05545,-0.53661 0.26591,-0.47299 0.64741,-0.57932l0,0" stroke-width="17"/>
  <line stroke="#0f0f0f" fill="#BBBBBB" stroke-width="6" x1="209.52947" y1="345.20797" x2="219.75232" y2="412.46088" id="svg_12"/>
  <line stroke="#0f0f0f" fill="#BBBBBB" stroke-width="10" x1="150.72267" y1="308.76423" x2="165.97102" y2="315.56939" id="svg_13"/>
  <line stroke="#0f0f0f" fill="#BBBBBB" stroke-width="10" x1="182.93395" y1="279.85912" x2="191.16109" y2="294.35844" id="svg_14"/>
  <line stroke="#0f0f0f" fill="#BBBBBB" stroke-width="10" x1="273.48279" y1="329.74047" x2="291.33232" y2="331.4195" id="svg_15"/>
  <line stroke="#0f0f0f" fill="#BBBBBB" stroke-width="10" x1="269.92515" y1="367.99049" x2="284.28223" y2="374.79707" id="svg_16"/>
  <line stroke="#0f0f0f" fill="#BBBBBB" stroke-width="10" x1="246.57813" y1="393.46687" x2="254.26809" y2="407.79631" id="svg_17"/>
  <line stroke="#0f0f0f" fill="#BBBBBB" stroke-width="10" x1="140.05911" y1="348.73286" x2="159.50808" y2="350.06788" id="svg_18"/>
  <line stroke="#0f0f0f" fill="#BBBBBB" stroke-width="10" x1="162.06673" y1="392.23507" x2="167.67159" y2="385.22609" id="svg_19"/>
  <line stroke="#0f0f0f" fill="#BBBBBB" stroke-width="10" x1="188.83946" y1="407.21717" x2="191.89311" y2="396.28536" id="svg_20"/>
  <path stroke="#0f0f0f" fill="#BBBBBB" stroke-width="28" id="svg_26" d="m133.86083,251.82507c0,0 0,0 -0.24302,0c-0.24302,0 -0.95181,-0.25422 -2.43016,-1.38438c-2.15817,-1.64987 -4.4842,-3.10432 -6.56142,-4.84535c-1.80353,-1.51164 -2.91619,-2.76877 -3.64524,-3.46096l-0.48603,-0.23073l0,-0.23073l0,0"/>
  <path stroke="#141414" d="m58.73018,493.7449c0,0.17344 0,0.3469 0,0.6938c0,0.69381 0,1.38763 0,2.08142c0,0.69381 0,1.38763 0,1.90798c0,0.52036 0,1.04071 0,1.73451c0,0.34691 0.12466,0.8367 0.25637,1.21417c0.1178,0.33762 0.12466,0.66324 0.25637,1.04071c0.17671,0.50643 0.38288,0.8462 0.51274,1.38761c0.1232,0.51364 0.39516,0.98913 0.76911,1.56107c0.42763,0.65403 0.51274,1.21417 0.76911,1.56107c0.25637,0.34691 0.25637,0.52036 0.51274,0.69381c0,0 0,0.17346 0,0.17346c0,0 0,0.17344 0,0.17344c0.25637,0 0.25637,0.17346 0.25637,0.17346c0,0.17346 0,0.17346 0.25637,0.3469c0,0 0,0.17346 0,0.34691c0,0.17344 0.25637,0.3469 0.25637,0.52036c0,0 0,0.17344 0.25637,0.17344c0,0 0,0.17346 0,0.17346c0,0 0.11762,0.12028 0.25637,0.3469c0.19623,0.32051 0.29336,0.85585 0.51274,1.21417c0.31025,0.50675 0.31652,0.89366 0.51274,1.21417c0.13875,0.22662 0.25637,0.3469 0.25637,0.3469c0,0.17346 0,0.17346 0.25637,0.17346c0,0 0,0.17344 0,0.17344l0,0.17346l0,0l0,0.17346" id="svg_6" stroke-width="7" fill="none"/>
  <path stroke="#141414" d="m109.74777,491.31656c0,0.17346 0,0.69381 0,1.56107c0,0.86727 0,1.73453 0,2.42834c0,0.86725 0,1.73451 0,2.60178c0,0.86725 0,1.73451 0,2.42832c0,0.69381 0.13108,1.21936 0.25637,1.90797c0.12915,0.7098 0.28085,1.38369 0.51274,2.08142c0.2868,0.8629 0.68482,2.1022 1.28184,3.12214c1.35155,2.30898 2.25451,3.31076 2.82007,4.16285c0.46969,0.70763 0.88674,1.161 1.02548,1.38763c0.0981,0.16025 0.25638,0.17344 0.25638,0.17344l0,0.17346" id="svg_9" stroke-width="7" fill="none"/>
  <path stroke="#141414" d="m110.00414,488.02098c0,0.17346 0.34512,0.29582 0.76911,0.69381c0.67039,0.62928 1.52545,1.39459 2.56369,2.25487c1.26641,1.04933 2.49531,2.12179 3.84555,3.12214c1.22245,0.90567 2.40142,1.67523 3.58918,2.60178c0.83988,0.65518 1.53823,1.04071 2.30733,1.56107c0.25637,0.17346 0.43415,0.42647 0.76911,0.52036c0.23685,0.06638 0.25637,0 0.51274,0.17346c0,0 0,0 0,0c0,0 -0.04502,-0.01698 0.25637,-0.34691c0.6739,-0.73774 1.59414,-1.70836 2.82007,-2.94868c1.34444,-1.36022 2.5928,-2.93485 3.84555,-4.16285c1.05014,-1.02939 1.7213,-1.94469 2.30733,-2.42833c0.45971,-0.37939 0.76911,-0.52036 0.76911,-0.69381c0,0 0,0 0,0c0,0 0.07508,-0.0508 0.25637,-0.17345c0.18128,-0.12265 0.15826,-0.36011 0.25637,-0.52036c0.13875,-0.22663 0.51274,-0.34691 0.51274,-0.34691c0,0 0,0 0,0.17345c0,0.52036 0.1388,1.36747 0.51274,2.77524c0.41063,1.54589 0.91259,3.44519 1.53822,5.37701c0.66754,2.06124 1.02548,4.33631 1.53822,6.41773c0.51273,2.08142 0.89697,3.63325 1.02548,4.85665c0.10905,1.03809 0,1.56107 0,1.90798c0,0.17344 0,0.17344 0,0.3469c0,0 0,0.17346 0,0.3469c0,0.17346 0,0.34691 0,0.52036c0,0.17346 0,0.17346 0,0.17346l0,0.17346" id="svg_22" stroke-width="7" fill="none"/>
  <path stroke="#141414" d="m156.91981,503.45821c0,0 0.25637,0 0.76911,0c1.28185,0 2.82007,0 4.35829,0c1.53822,0 3.07644,0 4.10191,0c1.02548,0 1.79458,0 2.30733,0c0.51274,0 0.76911,0 1.02548,0c0.25638,0 0.76911,0 1.28185,0c0.76911,0 1.55879,-0.05391 2.30733,-0.17346c0.55793,-0.0891 0.76911,-0.17344 0.76911,-0.17344c0,-0.17346 0.14859,-0.36179 0,-0.69381c-0.26787,-0.59855 -1.02548,-1.38761 -1.79458,-2.42832c-1.02549,-1.38763 -2.36802,-2.75545 -3.33282,-4.16285c-0.8215,-1.19835 -1.90964,-2.39785 -2.56369,-3.64249c-0.62523,-1.18979 -1.14483,-2.2268 -1.53822,-3.12214c-0.37249,-0.84776 -0.6374,-1.35704 -0.76911,-1.73452c-0.1178,-0.33762 0,-0.34691 0,-0.52036c0,0 -0.25637,0 -0.25637,0c0,0 0,0 0,0c-0.25638,0 -0.56577,-0.0325 -1.02549,0.34691c-0.58602,0.48364 -1.13645,1.17989 -1.79458,2.25487c-0.6205,1.0135 -1.28185,2.25488 -1.79458,3.64249c-0.51274,1.38761 -0.89441,2.75879 -1.28185,4.33631c-0.38054,1.54943 -1.52809,2.98766 -0.51274,9.01949c0.38704,2.29928 1.12409,3.18275 2.05096,4.16285c0.88473,0.93554 2.54255,2.43817 3.07644,2.94869c0.74036,0.70796 1.50785,1.07371 2.30733,1.38761c0.49582,0.19467 1.04559,0.31045 1.79458,0.52036c0.52963,0.14843 1.23667,0.43124 1.7946,0.52036c0.49901,0.0797 1.02548,0 1.53822,0c0.51273,0 0.94688,-0.07957 1.28184,-0.17346c0.23686,-0.06638 0.25638,-0.17344 0.51274,-0.17344l0,-0.17346l0.25637,0l0,-0.17346" id="svg_23" stroke-width="7" fill="none"/>
  <path stroke="#141414" d="m42.83525,493.05109c0,0 0.01087,0.10074 1.02548,0c2.64821,-0.26297 7.16197,-1.11656 12.04938,-1.56107c4.60166,-0.41853 9.22059,-0.78044 12.04938,-0.86725c1.79274,-0.05501 2.82007,-0.17346 3.3328,-0.17346c0.25637,0 0.25637,0 0.25637,0c0,-0.17345 0,-0.17345 0,-0.17345c0,0 0,-0.17346 0,-0.17346c0.25637,0 0.25637,0 0.25637,0c-0.25637,0.17346 -0.51274,0.34691 -0.51274,0.34691c0,0.17346 -0.25637,0.17346 -0.25637,0.17346l0,0.17344" id="svg_28" stroke-width="7" fill="none"/>
  <path stroke="#141414" d="m88.2127,492.53073c0,0 0,0 0,0.52036c0,1.38761 -0.112,3.29677 0,5.72392c0.12825,2.7793 0.6406,4.67396 0.76911,5.89737c0.10904,1.03809 0.25637,1.73451 0.25637,2.25487c0,0.17346 0,0.17346 0,0.34691c0,0 0.11762,-0.05318 0.25637,0.17344c0.09812,0.16025 0.51274,0.52036 0.76911,0.69381c0.25637,0.17346 0.69834,0.55899 1.53822,1.21417c0.9502,0.74123 1.79458,1.56107 2.30733,2.08142l0.25637,0.3469l0,0.17346l0,0.17344" id="svg_29" stroke-width="7" fill="none"/>
  <path stroke="#141414" d="m89.75092,489.92895c0,0 -0.16383,-0.37158 0.25637,-1.38762c0.74402,-1.79904 2.00839,-3.47894 2.82007,-5.0301c0.73102,-1.39701 1.02548,-2.42833 1.02548,-3.29559c0,-0.52036 0.0981,-0.70701 0,-0.86725c-0.13875,-0.22663 -0.51274,-0.17346 -0.76911,-0.17346l0,0l0,0l-0.25637,0" id="svg_32" stroke-width="7" fill="none"/>
  <path stroke="#141414" d="m227.53618,488.69458c0,0.21722 -0.10857,0.87041 0,3.04079c0.14155,2.82982 1.08099,6.0528 1.69735,9.55671c0.45593,2.59187 0.53845,4.56485 0.84867,5.86435c0.26005,1.08935 0.31985,2.19995 0.56578,2.82357c0.29557,0.74952 0.84868,1.08598 0.84868,1.3032c0,0 0.17463,0.23374 0.28289,0.43439c0.3062,0.56757 0.96717,0.74256 1.41446,1.08598c0.44728,0.34343 0.28289,0.43439 0.56578,0.65159l0,0" id="svg_36" stroke-width="7" fill="none"/>
  <path stroke="#141414" d="m208.29959,489.12899c0.56578,0 3.1118,0 8.20384,0c5.37493,0 10.18407,0 14.14454,0c2.26314,0 3.39469,0 3.39469,0c-0.84867,0.65159 -3.13283,1.71215 -5.37493,2.82357c-1.71379,0.84953 -2.54601,1.30318 -2.8289,1.52038c0,0 0.31102,0.04075 1.41446,-0.43439c2.3277,-1.00229 4.80914,-2.38918 6.78937,-3.47516c1.98024,-1.086 3.1118,-1.73759 3.96048,-2.17199l0.28289,-0.2172l0.28289,0l0.28289,0" id="svg_37" stroke-width="7" fill="none"/>
  <path stroke="#141414" d="m255.82527,487.60859c0,0.2172 0.0971,1.08715 0,3.47516c-0.14151,3.48026 -1.06463,8.22634 -1.98024,13.03189c-0.74159,3.89219 -0.92156,6.3054 -1.13156,8.25353c-0.14193,1.31666 -0.28289,1.73759 -0.28289,2.17199l0,0" id="svg_38" stroke-width="7" fill="none"/>
  <path stroke="#141414" d="m253.56215,484.35063c0,0.2172 1.10736,1.31488 3.96047,4.77836c4.4883,5.44849 9.35737,10.84803 12.73011,14.55227c2.56275,2.81464 4.52625,4.77836 5.37492,5.64715l0.56578,0.2172l0,0.2172" id="svg_40" stroke-width="7" fill="none"/>
  <path stroke="#141414" d="m312.60047,512.63093c0.24863,-0.18105 0.87572,-0.69373 2.48635,-1.26732c2.1189,-0.75462 5.69902,-1.44813 10.44264,-1.62943c5.46244,-0.20876 9.70634,-0.0896 13.67488,0.18105c3.99165,0.27222 7.51491,0.92227 9.9454,1.44838c1.28341,0.27782 2.23769,0.54314 2.73496,0.72418l0,0l0.24866,0" id="svg_48" stroke-width="7" fill="none"/>
  <path stroke="#141414" d="m330.50215,497.64161c0,0.36209 0.04309,1.35024 1.4918,3.07779c2.41025,2.87419 5.39293,5.31406 8.20494,7.06084c2.42239,1.50475 3.97814,2.17257 4.72404,2.53466l0.49727,0.18105l0.24866,0.18106" id="svg_49" stroke-width="7" fill="none"/>
  <path stroke="#141414" d="m346.91202,498.90893c0.24863,0 1.4918,0 3.97814,0c3.48088,0 6.96176,0 10.69129,0c2.98359,0 4.97267,0 6.46449,0c0.99453,0 1.4918,0 1.4918,0c0.24863,0 -0.02813,0.05264 -0.7459,-0.18105c-1.82998,-0.59579 -5.31013,-1.87974 -9.69674,-3.80198c-5.08165,-2.22681 -9.55942,-4.5912 -13.17762,-6.5177c-2.57025,-1.36852 -3.93783,-2.14318 -4.72407,-2.7157c-0.39313,-0.28626 -0.3176,-0.17755 -0.24863,0.18105c0.25106,1.3053 1.57137,3.66421 3.48088,7.42293c2.51498,4.95051 6.76252,11.07625 11.93446,16.47528c3.44341,3.59459 6.94216,5.81415 9.44811,7.06084c1.48041,0.73648 2.45615,0.99459 3.23225,1.08629c0.49084,0.058 1.24316,-0.18105 1.74043,-0.36209l0.99455,0l0.7459,0l0.49727,0" id="svg_50" stroke-width="7" fill="none"/>
  <path stroke="#141414" d="m278.22295,480.21023c0,0 -0.0226,0.64705 0.33954,1.92456c0.63941,2.2557 2.06657,5.76228 3.73525,9.62275c2.07373,4.79751 3.9996,9.00567 5.43306,12.83035c0.96825,2.58343 1.8654,3.81015 2.03738,4.81138c0.05438,0.31663 0,0.32076 0,0.32076c0,0.32076 0,0.32076 0,0.64152c0,0 0.07022,0.26068 0.67914,0.96228c0.77622,0.89437 1.26119,1.99242 2.03741,2.88681c0.30444,0.3508 0.67914,0.64152 0.67914,0.64152l0,0.32076l0,0" id="svg_54" stroke-width="7" fill="none"/>
  <path stroke="#141414" d="m282.97687,483.73858c0,0.32076 -0.04353,0.67025 0.67914,1.6038c1.28337,1.6579 2.48803,3.12478 4.07479,5.13214c1.46501,1.85335 2.62111,3.62784 3.73522,4.49062c0.94681,0.73322 1.63799,1.43901 2.37698,1.6038c0.66096,0.14738 1.36265,0.2694 1.69784,0.32076c1.05993,0.16246 2.06402,0.57409 3.05609,0.96225c0.70151,0.27447 1.25418,0.78869 1.69784,0.96228c0.31373,0.12276 0.33957,0 0.33957,0c0,0 0.10409,0.14717 -0.33957,0.32076c-0.31373,0.12276 -1.0187,0.32076 -1.69784,0.64152c-0.67914,0.32076 -1.45774,0.73548 -1.69784,0.96228c-0.2401,0.2268 -0.33954,0.64152 -0.33954,0.96228c0,0 0,0 0,0c0.33954,0 1.01868,0 2.03738,0c1.69784,0 3.39568,0 5.0935,0c1.69784,0 3.05611,0 3.73525,0c0.67914,0 1.01868,0 1.35824,0c0.33957,0 0.33957,0 0.33957,0c-0.33957,0.64152 -0.74504,1.56802 -1.69781,3.20757c-1.46152,2.51496 -3.39568,5.13214 -5.0935,8.01898l-1.69784,2.24529l-1.35827,1.92456" id="svg_57" stroke-width="7" fill="none"/>
  <path stroke="#141414" d="m309.84874,483.09369c-0.18172,0.15138 0.54941,1.5193 2.20285,5.81977c2.60898,6.78581 5.46554,14.15889 8.21355,19.52452l2.03642,4.25744" id="svg_68" stroke-width="7" fill="none"/>
 </g>

</svg>