<svg width="800" height="800" xmlns="http://www.w3.org/2000/svg">
 <g>
  <title>Layer 1</title>
  <polyline stroke="#0f0f0f" fill="#ffffff" stroke-width="28" points="412.86481952667236,351.87677001953125 412.86481952667236,351.87677001953125 " id="svg_24" stroke-linecap="round"/>
  <path stroke="#0f0f0f" fill="#ffffff" stroke-width="28" id="svg_25" d="m411.68883,366.21693c0,-1.10309 0,-1.10309 0,-2.20618c0,0 0,0 0,0c0,-1.10309 0,-1.10309 0,-1.10309c0,0 0,-1.10309 0,-1.10309c0,-1.10309 0,-1.10309 0,-2.20618c0,0 0,0 0,-1.10309c0,-1.10312 0,-2.20621 0,-2.20621c0,-1.10309 0,-1.10309 0,-2.20618c0,0 0,-1.10309 0,-1.10309c0,-1.10309 0,-1.10309 0,-1.10309c1.176,0 1.176,-1.10309 1.176,-1.10309c0,0 0,-1.10309 0,-1.10309c0,0 0,-1.10309 0,-2.20618c0,0 0,-1.10309 0,-1.10309c0,-1.10309 0,-1.10309 0,-2.20618c0,0 0,0 1.17597,1.10309c1.17597,1.10309 2.35196,2.20618 3.52793,3.30927c0,0 0,0 1.17597,1.10309l0,0"/>
  <path stroke="#0f0f0f" fill="#ffffff" id="svg_10" d="m431.42845,189.90575c-0.66896,0.32492 -1.64313,-0.13675 -3.71357,-0.64179c-3.66006,-0.89278 -8.00415,-1.49765 -12.17842,-3.86685c-2.91544,-1.65472 -6.03068,-3.83154 -10.17155,-4.84161c-3.66005,-0.89277 -6.7589,-1.48422 -10.12583,-1.60314c-4.38994,-0.15505 -8.37817,-0.3092 -12.1327,-0.62839c-3.35816,-0.28549 -7.49373,-0.02315 -9.75705,0.66325c-0.71573,0.21706 -1.33791,0.64984 -4.01375,1.94952c-3.34479,1.6246 -7.54197,3.2587 -12.04124,5.84856c-4.54495,2.61614 -10.35741,5.84587 -16.03212,9.41731c-5.6747,3.57144 -11.69533,6.49572 -15.70907,8.44524c-0.66896,0.32492 -2.16092,0.7134 -5.35166,2.59936c-3.8817,2.29436 -8.71896,5.78664 -15.3403,10.71163c-6.0396,4.49227 -11.13801,8.93482 -15.64048,13.30294c-3.83643,3.72194 -7.3128,6.81259 -11.30369,10.38134c0,0 -1.24549,1.09978 -3.64497,4.21591c-2.59811,3.37408 -5.61302,8.89515 -9.20535,15.88352c-4.72019,9.18244 -8.49186,17.72976 -10.42894,24.62953c-1.52828,5.4436 -1.75703,7.51587 -2.23846,8.42377c-0.76123,1.43553 -3.11109,4.30568 -5.2602,9.0763c-2.52887,5.61357 -3.7683,12.24079 -5.79197,19.11662c-2.17303,7.38331 -2.83882,13.6064 -4.7771,19.43886c-1.61523,4.86039 -1.26932,5.50754 -0.90055,7.77393c0.36878,2.26639 0.76042,6.15202 1.49797,10.6848c0.73755,4.53278 1.81697,8.99112 2.5357,12.62628c0.75906,3.83916 0.63597,4.50577 0.41451,5.50486c-0.56464,2.54721 0.06922,5.81581 0.13718,9.7154c0.07361,4.2224 0.78328,7.77125 1.52083,12.30404c0.73755,4.53278 2.04691,8.02657 3.20466,12.30136c1.38563,5.11624 2.06261,8.13759 1.49797,10.6848c-0.22147,0.99909 -0.32304,0.97208 0.36878,2.26639c0.69182,1.29431 3.41338,3.2331 5.46598,5.49682c2.0526,2.26371 4.86314,4.99032 6.50371,7.43829c2.09135,3.12056 3.81632,4.71135 4.79702,5.82174c1.09646,1.24144 2.37565,1.29163 2.72156,1.93879c0.69182,1.29431 1.65889,3.29065 4.12807,6.14665c3.99318,4.61878 9.07436,8.54677 13.99944,13.57958c4.28101,4.37466 8.09964,7.51198 10.24015,9.69932c1.6417,1.6776 3.73643,2.26103 4.08233,2.90819c0.69182,1.29431 2.50876,2.72945 7.14981,5.49413c6.62624,3.94726 12.6427,7.63806 18.68214,11.30514c5.16129,3.13387 9.55612,4.91555 13.21616,5.80833c3.10566,0.75755 4.79962,1.84108 5.42026,2.25834c2.23773,1.50447 8.11895,2.57791 15.22303,4.83357c7.10408,2.25566 13.90279,5.40918 19.62842,6.76967c4.27464,1.01573 7.33438,2.07664 9.45686,1.92807c0.75041,-0.05252 2.31234,-0.65056 7.05835,-0.9828c8.38983,-0.58732 17.49238,-0.0281 26.27227,0.282c6.73386,0.23785 12.65592,0.75636 18.17618,-0.67666c0.72485,-0.18817 2.45232,-1.78871 6.68957,-3.2492c5.82356,-2.00722 15.1744,-2.99086 26.52671,-5.54778c10.47013,-2.35824 17.43863,-5.20944 23.45925,-8.13372c2.67583,-1.29968 4.01375,-1.94952 8.02749,-3.89904c6.68957,-3.2492 14.53869,-7.49227 25.74344,-13.31903c11.88213,-6.17902 20.3626,-13.55172 29.36554,-19.15417c0.6288,-0.39129 1.94864,-1.48546 4.61411,-7.13214c6.58756,-13.95558 13.01331,-32.40615 17.53597,-46.01522c4.19961,-12.637 8.02965,-19.95285 8.79085,-21.38838c0.48144,-0.90791 1.63191,-3.79031 3.23046,-9.72077c2.41263,-8.95044 2.76739,-19.10602 2.63304,-28.17951c-0.12958,-8.74985 -0.55169,-15.22026 -0.55169,-15.22026c-0.02286,-1.61923 0.4738,-5.85722 -0.87474,-14.24819c-1.56708,-9.75077 -4.76397,-20.44517 -7.51564,-31.40189c-1.63418,-6.507 -3.22752,-13.92059 -3.22752,-13.92059c-0.69182,-1.29431 -2.65765,-4.42243 -4.84276,-9.06021c-3.13715,-6.65842 -6.27213,-14.8873 -10.07715,-22.00603c-4.84276,-9.06021 -4.84276,-9.06021 -5.88049,-11.00168c-2.42138,-4.5301 -5.62641,-11.96874 -10.37733,-19.41472c-5.20742,-8.16138 -9.68392,-13.20379 -13.37621,-17.14296c-2.09115,-2.23096 -2.21526,-2.08162 -3.41338,-3.2331c-3.2593,-3.13236 -7.17268,-7.11336 -11.94684,-11.31587c-4.77416,-4.20251 -8.47965,-7.43798 -11.25501,-10.02155c-1.21708,-1.13297 -2.08675,-1.47556 -3.06747,-2.58595c-3.2894,-3.72434 -11.18184,-7.33485 -19.71987,-13.24662c-7.42601,-5.1418 -12.81415,-9.10321 -16.67527,-12.2799c-3.64027,-2.99502 -3.33193,-2.96072 -4.08233,-2.90819c-1.06126,0.07429 -3.0627,-0.7073 -4.72844,-0.96403c-2.10703,-0.32473 -3.63627,-0.96154 -5.7433,-1.28627c-1.66573,-0.25674 -3.67492,-0.80167 -4.72844,-0.96403c-1.66573,-0.25674 -3.36765,0.00537 -4.38252,-0.31687c-1.01487,-0.32224 -2.35278,0.3276 -3.36765,0.00537c-1.01487,-0.32224 -2.04783,-0.38506 -3.71357,-0.64179c-1.05351,-0.16237 -2.02973,-0.64447 -3.0446,-0.96671c-1.01487,-0.32224 -2.37565,-1.29163 -3.39051,-1.61387c-1.01487,-0.32224 -2.02973,-0.64447 -3.0446,-0.96671c-1.01487,-0.32224 -2.02973,-0.64447 -3.0446,-0.96671c-1.01487,-0.32224 -2.3064,-0.06892 -3.36765,0.00537c-0.75042,0.05254 -2.35278,0.3276 -4.03661,0.33029c-1.68382,0.00268 -2.69869,-0.31955 -4.38252,-0.31687c-1.68382,0.00268 -3.36765,0.00537 -5.05148,0.00805c-1.68382,0.00268 -3.41796,-0.36658 -5.05148,0.00805c-1.46108,0.33509 -3.03982,0.91192 -4.70557,0.65521c-1.05351,-0.16237 -2.57553,-0.0048 -4.03661,0.33029c-1.63352,0.37463 -3.36765,0.00537 -5.05148,0.00805c-1.68382,0.00268 -3.34743,0.16685 -5.72044,0.33297c-1.67797,0.11746 -4.03661,0.33029 -5.72044,0.33297c-1.68382,0.00268 -3.30608,0.16274 -4.03661,0.33029c-1.63352,0.37463 -2.27132,0.59999 -3.02175,0.65252c-1.06124,0.07429 -1.60237,0.27507 -2.35278,0.3276c-1.06124,0.07429 -1.68382,0.00268 -3.02175,0.65252c-0.66896,0.32492 -2.00687,0.97476 -3.34479,1.6246c-2.00687,0.97476 -2.67583,1.29968 -4.01375,1.94952c-1.33791,0.64984 -2.00687,0.97476 -2.67583,1.29968c-0.66896,0.32492 -1.33791,0.64984 -2.67583,1.29968c-0.66896,0.32492 -2.00687,0.97476 -3.34479,1.6246c-0.66896,0.32492 -2.00687,0.97476 -2.67583,1.29968c-0.66896,0.32492 -2.00687,0.97476 -2.67583,1.29968c-0.66896,0.32492 -0.66896,0.32492 -1.33791,0.64984c0,0 -0.66896,0.32492 -0.66896,0.32492c-0.66896,0.32492 -1.33791,0.64984 -1.33791,0.64984c-1.33791,0.64984 -2.00687,0.97476 -2.67583,1.29968c-0.66896,0.32492 -1.33791,0.64984 -2.00687,0.97476c-0.66896,0.32492 -2.00687,0.97476 -2.67583,1.29968c-0.66896,0.32492 -1.66096,1.62192 -2.32992,1.94684c-0.66896,0.32492 -1.05182,0.90726 -2.32992,1.94684c-0.57158,0.46491 -1.84425,1.39899 -2.32992,1.94684c-0.68682,0.77477 -1.1753,1.07407 -1.66096,1.62192c-0.68682,0.77477 -1.66096,1.62192 -1.98401,2.59399l-0.64609,1.94415" stroke-width="32"/>
  <path stroke="#0f0f0f" fill="#BBBBBB" id="svg_11" d="m407.97805,352.11191c-0.72074,0.20169 0.06947,0.1544 0.72074,-0.20169c1.45633,-0.79623 3.35101,-2.74233 5.39486,-5.29271c1.93895,-2.41951 3.68309,-5.04839 5.4605,-7.58088c1.51051,-2.15221 3.25508,-4.10392 4.95812,-6.68369c2.00708,-3.04028 4.85814,-5.43389 6.90198,-7.98427c1.93895,-2.41951 3.41665,-5.03049 5.4605,-7.58088c1.93895,-2.41951 3.68309,-5.04839 5.4605,-7.58088c1.51051,-2.15221 3.90875,-4.15074 5.67886,-6.88538c1.42711,-2.20474 2.51188,-4.48592 4.23737,-6.48199c1.7255,-1.99607 2.22401,-4.66729 3.51663,-6.2803c1.02191,-1.27521 1.61603,-2.58919 2.73025,-3.79044c0.4983,-0.53721 0.64952,-1.15998 1.00475,-1.79437c0.35523,-0.63439 1.22312,-1.09888 1.7255,-1.99607c0.50238,-0.89719 1.14318,-1.54356 1.7255,-1.99607c0.82351,-0.63993 1.16167,-1.72685 1.50712,-2.69156c0.54622,-1.52532 1.21925,-2.87293 2.51188,-4.48592c1.02192,-1.2752 2.08393,-2.98393 2.73025,-3.79044c1.02192,-1.2752 1.70833,-2.51524 2.73025,-3.79044c0.64632,-0.80651 1.20596,-1.61806 2.22787,-2.89325c0.64632,-0.80651 1.20596,-1.61806 2.22787,-2.89325c0.64632,-0.80651 1.50712,-2.69156 2.51188,-4.48592c0.50238,-0.89719 1.70833,-2.51524 2.73025,-3.79044c1.29263,-1.613 1.21925,-2.87293 2.51188,-4.48592c1.02192,-1.2752 1.43763,-2.17743 2.73025,-3.79044c1.02192,-1.2752 2.44624,-2.19777 2.94861,-3.09494c0.50238,-0.89719 0.93068,-1.07464 1.00475,-1.79437c0.10475,-1.01786 0.50238,-0.89719 1.22312,-1.09888l0,0" stroke-width="37"/>
  <line stroke="#0f0f0f" fill="#BBBBBB" stroke-width="13" x1="408.82629" y1="354.13583" x2="428.13983" y2="481.70363" id="svg_12"/>
  <line stroke="#0f0f0f" fill="#BBBBBB" stroke-width="37" x1="297.72545" y1="285.008" x2="326.53341" y2="297.91628" id="svg_13"/>
  <line stroke="#0f0f0f" fill="#BBBBBB" stroke-width="37" x1="358.58066" y1="230.17971" x2="374.1238" y2="257.68256" id="svg_14"/>
  <line stroke="#0f0f0f" fill="#BBBBBB" stroke-width="37" x1="529.65024" y1="324.79651" x2="563.37249" y2="327.98134" id="svg_15"/>
  <line stroke="#0f0f0f" fill="#BBBBBB" stroke-width="37" x1="522.92896" y1="397.35055" x2="550.0531" y2="410.26152" id="svg_16"/>
  <line stroke="#0f0f0f" fill="#BBBBBB" stroke-width="12" x1="478.82055" y1="445.67509" x2="493.34882" y2="472.85569" id="svg_17"/>
  <line stroke="#0f0f0f" fill="#BBBBBB" stroke-width="12" x1="277.5793" y1="360.82197" x2="314.3233" y2="363.35428" id="svg_18"/>
  <line stroke="#0f0f0f" fill="#BBBBBB" stroke-width="26" x1="319.15723" y1="443.33857" x2="329.74623" y2="430.04368" id="svg_19"/>
  <line stroke="#0f0f0f" fill="#BBBBBB" stroke-width="12" x1="369.73767" y1="471.75717" x2="375.50678" y2="451.02131" id="svg_20"/>
  <path stroke="#0f0f0f" fill="#BBBBBB" stroke-width="28" id="svg_26" d="m265.86918,177.00369c0,0 0,0 -0.45912,0c-0.45912,0 -1.7982,-0.48221 -4.59118,-2.62595c-4.07733,-3.12953 -8.47179,-5.88839 -12.39618,-9.19084c-3.40731,-2.86734 -5.50941,-5.25191 -6.88677,-6.56488l-0.91823,-0.43766l0,-0.43766l0,0"/>
  <g stroke="null" id="svg_70">
   <g stroke="null" id="svg_35">
    <path stroke="#141414" d="m123.92846,635.88616c0,0.32899 0,0.65801 0,1.31602c0,1.31605 0,2.6321 0,3.94812c0,1.31605 0,2.6321 0,3.61913c0,0.98703 0,1.97406 0,3.29008c0,0.65804 0.23552,1.58709 0.48434,2.30308c0.22256,0.64042 0.23552,1.25807 0.48435,1.97406c0.33385,0.96061 0.72335,1.6051 0.96869,2.63207c0.23275,0.97429 0.74655,1.87623 1.45304,2.96109c0.8079,1.2406 0.9687,2.30308 1.45304,2.96109c0.48435,0.65804 0.48435,0.98703 0.9687,1.31605c0,0 0,0.32902 0,0.32902c0,0 0,0.32899 0,0.32899c0.48434,0 0.48434,0.32902 0.48434,0.32902c0,0.32902 0,0.32902 0.48435,0.65801c0,0 0,0.32902 0,0.65804c0,0.32899 0.48435,0.65801 0.48435,0.98703c0,0 0,0.32899 0.48434,0.32899c0,0 0,0.32902 0,0.32902c0,0 0.22222,0.22814 0.48435,0.65801c0.37073,0.60795 0.55424,1.62341 0.96869,2.30308c0.58614,0.96122 0.59798,1.69513 0.9687,2.30308c0.26212,0.42987 0.48434,0.65801 0.48434,0.65801c0,0.32902 0,0.32902 0.48435,0.32902c0,0 0,0.32899 0,0.32899l0,0.32902l0,0l0,0.32902" id="svg_6" stroke-width="20" fill="none"/>
    <path stroke="#141414" d="m220.31354,631.28c0,0.32902 0,1.31605 0,2.96109c0,1.64507 0,3.29011 0,4.60616c0,1.64504 0,3.29008 0,4.93515c0,1.64504 0,3.29008 0,4.60613c0,1.31605 0.24764,2.31293 0.48434,3.6191c0.244,1.34638 0.53059,2.62463 0.9687,3.94812c0.54183,1.63679 1.2938,3.98752 2.42172,5.92218c2.55342,4.37977 4.25933,6.27997 5.32783,7.89624c0.88735,1.34226 1.67527,2.20223 1.93738,2.6321c0.18533,0.30396 0.48436,0.32899 0.48436,0.32899l0,0.32902" id="svg_9" stroke-width="20" fill="none"/>
    <path stroke="#141414" d="m220.79788,625.02881c0,0.32902 0.65202,0.56112 1.45304,1.31605c1.26653,1.19364 2.88196,2.64531 4.84346,4.27713c2.39256,1.99042 4.71427,4.02469 7.26521,5.92218c2.30951,1.71791 4.5369,3.17764 6.78087,4.93515c1.58674,1.24276 2.9061,1.97406 4.35912,2.96109c0.48434,0.32902 0.82022,0.80895 1.45304,0.98703c0.44747,0.12591 0.48434,0 0.9687,0.32902c0,0 0,0 0,0c0,0 -0.08505,-0.0322 0.48434,-0.65804c1.27316,-1.39937 3.01173,-3.24047 5.32783,-5.59316c2.53998,-2.58011 4.89845,-5.56693 7.26521,-7.89624c1.98399,-1.95258 3.25196,-3.68876 4.35912,-4.60615c0.86851,-0.71964 1.45304,-0.98703 1.45304,-1.31604c0,0 0,0 0,0c0,0 0.14185,-0.09636 0.48434,-0.32901c0.34249,-0.23265 0.29898,-0.68307 0.48434,-0.98703c0.26214,-0.42988 0.9687,-0.65803 0.9687,-0.65803c0,0 0,0 0,0.32901c0,0.98703 0.26222,2.59386 0.9687,5.26417c0.77579,2.93231 1.72411,6.53497 2.90608,10.19931c1.26115,3.90984 1.93738,8.22526 2.90608,12.17339c0.96868,3.94812 1.6946,6.89168 1.93738,9.21227c0.20602,1.96909 0,2.96109 0,3.61913c0,0.32899 0,0.32899 0,0.65801c0,0 0,0.32902 0,0.65801c0,0.32902 0,0.65804 0,0.98703c0,0.32902 0,0.32902 0,0.32902l0,0.32902" id="svg_22" stroke-width="20" fill="none"/>
    <path stroke="#141414" d="m309.4334,654.31072c0,0 0.48434,0 1.45304,0c2.42174,0 5.32783,0 8.23391,0c2.90608,0 5.81217,0 7.74955,0c1.93738,0 3.39042,0 4.35912,0c0.9687,0 1.45304,0 1.93738,0c0.48436,0 1.45304,0 2.42174,0c1.45304,0 2.94495,-0.10226 4.35912,-0.32902c1.05406,-0.16901 1.45304,-0.32899 1.45304,-0.32899c0,-0.32902 0.28072,-0.68626 0,-1.31605c-0.50607,-1.13535 -1.93738,-2.63207 -3.39042,-4.60613c-1.9374,-2.6321 -4.4738,-5.22664 -6.29653,-7.89624c-1.55202,-2.27308 -3.60779,-4.54833 -4.84346,-6.90921c-1.18122,-2.25684 -2.16287,-4.22387 -2.90608,-5.9222c-0.70373,-1.60807 -1.20421,-2.57409 -1.45304,-3.2901c-0.22256,-0.64042 0,-0.65803 0,-0.98703c0,0 -0.48434,0 -0.48434,0c0,0 0,0 0,0c-0.48436,0 -1.06887,-0.06164 -1.9374,0.65803c-1.10714,0.91739 -2.14704,2.23806 -3.39042,4.27713c-1.17228,1.92245 -2.42174,4.27714 -3.39042,6.90921c-0.9687,2.63207 -1.68977,5.23297 -2.42174,8.22526c-0.71894,2.93901 -2.88695,5.66711 -0.9687,17.10851c0.73122,4.36136 2.12369,6.03716 3.87478,7.89624c1.67148,1.77456 4.80351,4.62481 5.81217,5.59319c1.39872,1.34289 2.8487,2.03665 4.35912,2.63207c0.93673,0.36926 1.97538,0.58888 3.39042,0.98703c1.00061,0.28155 2.33638,0.81799 3.39044,0.98703c0.94276,0.15118 1.93738,0 2.90608,0c0.96868,0 1.7889,-0.15094 2.42172,-0.32902c0.44749,-0.12591 0.48436,-0.32899 0.9687,-0.32899l0,-0.32902l0.48434,0l0,-0.32902" id="svg_23" stroke-width="20" fill="none"/>
    <path stroke="#141414" d="m93.89894,634.57011c0,0 0.02054,0.19109 1.93739,0c5.00313,-0.49882 13.53077,-2.11792 22.76432,-2.96109c8.69369,-0.79389 17.42002,-1.48037 22.76432,-1.64504c3.38694,-0.10434 5.32781,-0.32902 6.2965,-0.32902c0.48435,0 0.48435,0 0.48435,0c0,-0.32901 0,-0.32901 0,-0.32901c0,0 0,-0.32902 0,-0.32902c0.48435,0 0.48435,0 0.48435,0c-0.48435,0.32902 -0.9687,0.65803 -0.9687,0.65803c0,0.32902 -0.48434,0.32902 -0.48434,0.32902l0,0.32899" id="svg_28" stroke-width="20" fill="none"/>
    <path stroke="#141414" d="m179.62837,633.58308c0,0 0,0 0,0.98703c0,2.63207 -0.2116,6.25343 0,10.85734c0.24229,5.27188 1.21026,8.86574 1.45304,11.18636c0.20601,1.96909 0.48435,3.29008 0.48435,4.27711c0,0.32902 0,0.32902 0,0.65804c0,0 0.22222,-0.10088 0.48435,0.32899c0.18537,0.30396 0.96869,0.98703 1.45304,1.31605c0.48434,0.32902 1.31935,1.06032 2.90608,2.30308c1.79516,1.40599 3.39042,2.96109 4.35912,3.94812l0.48434,0.65801l0,0.32902l0,0.32899" id="svg_29" stroke-width="20" fill="none"/>
    <path stroke="#141414" d="m182.53446,628.64792c0,0 -0.30952,-0.70482 0.48435,-2.63209c1.40564,-3.41248 3.79435,-6.59897 5.32781,-9.54129c1.38107,-2.6499 1.93739,-4.60615 1.93739,-6.2512c0,-0.98703 0.18534,-1.34108 0,-1.64504c-0.26212,-0.42988 -0.96869,-0.32902 -1.45304,-0.32902l0,0l0,0l-0.48435,0" id="svg_32" stroke-width="20" fill="none"/>
   </g>
   <path stroke="#141414" d="m442.84552,626.30651c0,0.41203 -0.20511,1.65102 0,5.76789c0.26743,5.36771 2.04226,11.48117 3.20672,18.12752c0.86136,4.91636 1.01727,8.65877 1.60335,11.12371c0.49129,2.06632 0.60428,4.17295 1.0689,5.35586c0.55842,1.42172 1.60337,2.05993 1.60337,2.47196c0,0 0.32992,0.44336 0.53445,0.82397c0.57849,1.07658 1.82724,1.40851 2.67227,2.05993c0.84503,0.65142 0.53445,0.82397 1.0689,1.23596l0,0" id="svg_36" stroke-width="17" fill="none"/>
   <path stroke="#141414" d="m406.50276,627.13053c1.0689,0 5.87898,0 15.49913,0c10.15459,0 19.24027,0 26.72259,0c4.27564,0 6.41343,0 6.41343,0c-1.60335,1.23596 -5.9187,3.24768 -10.15459,5.35586c-3.23779,1.61142 -4.81006,2.47192 -5.34451,2.8839c0,0 0.58759,0.07729 2.67227,-0.82397c4.39762,-1.90118 9.08567,-4.53189 12.82684,-6.59182c3.74116,-2.05997 5.87898,-3.29593 7.48235,-4.1199l0.53445,-0.41199l0.53445,0l0.53445,0" id="svg_37" stroke-width="17" fill="none"/>
   <path stroke="#141414" d="m496.29074,624.24658c0,0.41199 0.18344,2.06215 0,6.59182c-0.26735,6.60149 -2.01136,15.60403 -3.74116,24.71937c-1.40104,7.38286 -1.74105,11.96031 -2.13779,15.6556c-0.26813,2.49749 -0.53445,3.29593 -0.53445,4.1199l0,0" id="svg_38" stroke-width="17" fill="none"/>
   <path stroke="#141414" d="m492.01512,618.06675c0,0.41199 2.09208,2.49412 7.48233,9.06378c8.47953,10.33489 17.67843,20.57694 24.05038,27.60328c4.84169,5.33891 8.55122,9.06378 10.15457,10.71172l1.0689,0.41199l0,0.41199" id="svg_40" stroke-width="17" fill="none"/>
   <g stroke="null" id="svg_69">
    <path stroke="#141414" d="m603.55338,671.70988c0.46973,-0.34341 1.65445,-1.31589 4.69734,-2.4039c4.00314,-1.43139 10.76689,-2.74686 19.72877,-3.09076c10.31992,-0.39598 18.33771,-0.16995 25.8353,0.34341c7.54122,0.51636 14.19756,1.7494 18.78936,2.74735c2.42468,0.52698 4.22757,1.03024 5.16702,1.37366l0,0l0.46977,0" id="svg_48" stroke-width="17" fill="none"/>
    <path stroke="#141414" d="m637.37417,643.27757c0,0.68683 0.08141,2.56118 2.81838,5.83807c4.55358,5.45187 10.1886,10.07991 15.50121,13.39325c4.57651,2.85427 7.51572,4.121 8.9249,4.80783l0.93946,0.34341l0.46977,0.34345" id="svg_49" stroke-width="17" fill="none"/>
    <path stroke="#141414" d="m668.37654,645.68147c0.46973,0 2.81838,0 7.51572,0c6.57626,0 13.15251,0 20.19855,0c5.63675,0 9.39463,0 12.21306,0c1.87892,0 2.81838,0 2.81838,0c0.46973,0 -0.05315,0.09984 -1.40919,-0.34341c-3.45729,-1.13012 -10.03217,-3.56556 -18.31958,-7.21173c-9.60052,-4.2239 -18.06014,-8.70875 -24.89584,-12.36301c-4.85586,-2.59586 -7.43955,-4.06527 -8.92495,-5.15125c-0.74272,-0.543 -0.60003,-0.33679 -0.46973,0.34341c0.47431,2.47595 2.96872,6.95042 6.57626,14.08008c4.75142,9.39032 12.77611,21.00984 22.54719,31.25092c6.50546,6.81835 13.1155,11.0285 17.84985,13.39325c2.79687,1.39698 4.64028,1.88657 6.10653,2.06052c0.92733,0.11001 2.34865,-0.34341 3.28811,-0.68683l1.87896,0l1.40919,0l0.93946,0" id="svg_50" stroke-width="16" fill="none"/>
    <path stroke="#141414" d="m538.60558,610.21309c0,0 -0.0427,1.22734 0.64148,3.65058c1.20801,4.2787 3.90427,10.93011 7.05683,18.25279c3.91779,9.10009 7.55626,17.08228 10.26443,24.33709c1.82926,4.90035 3.5242,7.22723 3.84913,9.12639c0.10273,0.60059 0,0.60843 0,0.60843c0,0.60843 0,0.60843 0,1.21686c0,0 0.13266,0.49447 1.28306,1.82529c1.46647,1.69647 2.38271,3.7793 3.84918,5.47582c0.57517,0.66541 1.28306,1.21686 1.28306,1.21686l0,0.60843l0,0" id="svg_54" stroke-width="17" fill="none"/>
    <path stroke="#141414" d="m547.58694,616.9058c0,0.60843 -0.08224,1.27135 1.28306,3.04215c2.42461,3.14477 4.70051,5.92719 7.69831,9.73482c2.76777,3.5155 4.95194,6.88143 7.05678,8.51797c1.78876,1.39081 3.09457,2.72956 4.49071,3.04215c1.24873,0.27957 2.57438,0.511 3.20765,0.60843c2.00248,0.30816 3.89944,1.08896 5.77372,1.82524c1.32533,0.52062 2.36946,1.49602 3.20765,1.82529c0.59271,0.23286 0.64153,0 0.64153,0c0,0 0.19666,0.27916 -0.64153,0.60843c-0.59271,0.23286 -1.92459,0.60843 -3.20765,1.21686c-1.28306,0.60843 -2.75404,1.39508 -3.20765,1.82529c-0.45361,0.43021 -0.64148,1.21686 -0.64148,1.82529c0,0 0,0 0,0c0.64148,0 1.92454,0 3.84913,0c3.20765,0 6.4153,0 9.6229,0c3.20765,0 5.77377,0 7.05683,0c1.28306,0 1.92454,0 2.56607,0c0.64153,0 0.64153,0 0.64153,0c-0.64153,1.21686 -1.40757,2.97428 -3.2076,6.08425c-2.76117,4.77047 -6.4153,9.73482 -9.6229,15.21069l-3.20765,4.25896l-2.56612,3.65058" id="svg_57" stroke-width="17" fill="none"/>
    <path stroke="#141414" d="m598.35468,615.68255c-0.34331,0.28714 1.03797,2.88186 4.16174,11.03915c4.92903,12.87157 10.32579,26.85711 15.51747,37.03483l3.84731,8.07567" id="svg_68" stroke-width="17" fill="none"/>
   </g>
  </g>
  <path id="svg_72" d="m1037.34363,671.67574l0.56913,0l0.17587,-0.54067l0.17587,0.54067l0.56913,0l-0.46044,0.33415l0.17588,0.54067l-0.46044,-0.33416l-0.46044,0.33416l0.17588,-0.54067l-0.46044,-0.33415z" stroke-width="32" stroke="#0f0f0f" fill="#ffffff"/>
  <path id="svg_73" d="m-584.29017,-225.93883l0.56913,0l0.17587,-0.54067l0.17587,0.54067l0.56913,0l-0.46044,0.33415l0.17588,0.54067l-0.46044,-0.33416l-0.46044,0.33416l0.17588,-0.54067l-0.46044,-0.33415z" stroke-width="32" stroke="#0f0f0f" fill="#ffffff"/>
  <path d="m409.67746,351.6153c0,0 1.24231,-1.65604 1.61288,-3.2258c0.82861,-3.5101 3.52585,-5.95572 6.45166,-8.06454c1.85043,-1.33371 0.47241,-3.69824 1.61288,-4.83871c1.1405,-1.1405 1.61292,0 1.61292,0l0,0l0,0" id="svg_77" stroke-width="32" stroke="#0f0f0f" fill="none"/>
 </g>

</svg>